<svg xmlns="http://www.w3.org/2000/svg" viewBox="0 0 684.3 618"><defs><style>.cls-1{fill:#fff;stroke:#231f20;stroke-miterlimit:10;}</style></defs><g id="Layer_2" data-name="Layer 2"><g id="New_Layer" data-name="New Layer"><path class="cls-1" d="M.5,94.3c0,51.6.3,190.5.7,308.5l.6,214.7h682L683,309.7c-.4-169.2-.9-308-1.2-308.5S660.9.5,636,.5H590.5l.7,264.5.6,264.5H450.1c-113.3,0-141.7-.3-141.3-1.3.2-.6,1.9-5.6,3.6-11,6.3-19.7,6.4-20.6,6.8-85.2s0-74.5-4.7-93.1c-11.9-47.4-40.9-79.6-88.8-99-17.6-7.2-44.2-12.4-62.8-12.4h-8.4v87.7l12.3.6c13.9.7,21.1,2.4,31.4,7.3,13.8,6.6,23,18.1,27,34,1.6,6.2,1.8,12.8,1.8,63.9,0,51.5-.2,57.6-1.8,63.4-5.2,18.9-16.8,32.9-32.3,39-12.4,4.8-17.6,5.3-60.1,5.8l-40.3.5V88.5h201l-.2-43.8L293,1,146.8.7.5.5Z"/><path class="cls-1" d="M409.4,1.2c-.5,2.5.3,428.5.8,445.5l.6,20.8h90.7V402.2c0-36-.3-141-.7-233.5L500.2.5H454.8C429.9.5,409.4.8,409.4,1.2Z"/></g></g></svg>